<?xml version="1.0" standalone="no"?>
<!DOCTYPE svg PUBLIC "-//W3C//DTD SVG 20010904//EN"
 "http://www.w3.org/TR/2001/REC-SVG-20010904/DTD/svg10.dtd">
<svg version="1.0" xmlns="http://www.w3.org/2000/svg"
 width="200.000000pt" height="200.000000pt" viewBox="0 0 200.000000 200.000000"
 preserveAspectRatio="xMidYMid meet">
<metadata>
Created by potrace 1.14, written by Peter Selinger 2001-2017
</metadata>
<g transform="translate(0.000000,200.000000) scale(0.100000,-0.100000)"
fill="#000000" stroke="none">
<path d="M997 1893 c-3 -2 -22 -5 -142 -18 -54 -6 -95 -15 -125 -28 -14 -6
-27 -11 -30 -12 -43 -15 -122 -54 -130 -65 -3 -4 -30 -24 -60 -45 -61 -43 -80
-61 -161 -155 -55 -65 -101 -131 -154 -224 -32 -57 -104 -254 -110 -305 -3
-20 -9 -58 -13 -86 -10 -65 -7 -168 7 -225 7 -25 14 -56 17 -70 3 -14 12 -38
20 -54 8 -16 14 -33 14 -38 0 -5 20 -40 44 -76 48 -74 131 -164 189 -206 53
-39 208 -117 218 -110 5 3 9 1 9 -5 0 -11 32 -21 155 -47 119 -26 421 -22 476
7 9 4 27 10 40 13 45 9 133 44 137 55 2 5 9 8 16 5 18 -7 151 64 184 98 15 15
31 28 35 28 9 0 13 4 87 75 29 28 61 68 72 90 11 22 30 54 42 70 104 142 131
454 59 680 -9 28 -21 53 -26 56 -5 3 -8 10 -7 15 3 23 -79 171 -139 248 -28
36 -124 127 -177 166 -98 73 -253 139 -364 155 -47 7 -179 13 -183 8z m259
-124 c44 -13 81 -27 82 -31 2 -4 10 -8 18 -8 30 0 181 -107 243 -173 59 -62
178 -232 172 -244 -1 -3 28 -86 46 -133 32 -84 37 -296 10 -400 -17 -62 -53
-145 -96 -219 -41 -70 -140 -162 -234 -217 -105 -62 -127 -74 -127 -68 0 3 -6
2 -12 -3 -7 -4 -17 -8 -23 -9 -5 -1 -37 -12 -70 -24 -98 -35 -139 -41 -300
-45 -109 -3 -144 0 -220 20 -161 40 -269 92 -366 175 -53 47 -139 150 -139
169 0 6 -5 11 -11 11 -5 0 -8 4 -5 9 4 5 2 11 -4 13 -6 2 -12 12 -14 24 -2 11
-11 37 -20 57 -61 148 -26 401 87 622 69 134 168 259 267 335 63 49 69 53 85
68 7 6 17 12 20 12 4 0 35 13 69 29 134 62 386 76 542 30z"/>
<path d="M1348 1368 c-10 -12 -18 -25 -18 -30 0 -4 -9 -12 -19 -17 -14 -8 -29
-5 -62 12 -24 13 -50 22 -56 21 -7 -1 -17 -2 -22 -3 -14 -2 -20 -41 -10 -65
28 -58 121 -77 210 -42 8 4 30 31 48 61 28 45 31 58 21 70 -19 23 -72 19 -92
-7z"/>
<path d="M798 1358 c-16 -5 -28 -16 -28 -23 0 -21 -29 -45 -53 -45 -12 0 -33
9 -47 20 -35 28 -68 26 -82 -5 -37 -82 148 -141 224 -72 50 45 73 100 52 122
-17 17 -28 18 -66 3z"/>
<path d="M1570 1240 c-14 -11 -30 -20 -35 -20 -20 0 -66 -52 -61 -67 3 -8 6
-19 6 -25 0 -7 16 -9 41 -5 l41 5 -7 -36 c-12 -67 -9 -79 25 -90 26 -10 34 -7
67 21 94 80 132 123 127 144 -3 12 -12 24 -20 27 -17 6 -59 -8 -69 -23 -13
-22 -24 -10 -19 18 5 21 1 34 -15 50 -26 26 -49 26 -81 1z"/>
<path d="M1346 995 c-8 -8 -19 -15 -25 -15 -6 0 -11 -4 -11 -10 0 -5 -7 -10
-15 -10 -21 0 -37 -35 -29 -65 6 -23 16 -30 38 -26 17 4 24 -21 15 -53 -14
-49 -11 -65 19 -80 25 -13 32 -11 107 28 72 37 80 44 80 70 0 37 -31 50 -70
30 -15 -8 -29 -14 -32 -14 -4 0 -1 26 12 100 1 8 -1 25 -6 38 -10 26 -59 31
-83 7z"/>
<path d="M902 903 c-38 -20 -70 -51 -100 -98 -20 -32 -26 -53 -26 -105 0 -86
7 -113 42 -158 37 -46 102 -80 162 -83 48 -3 130 18 130 33 0 5 5 6 10 3 6 -3
10 -1 10 4 0 6 5 11 11 11 15 0 34 24 64 82 62 117 14 247 -113 312 -40 21
-149 20 -190 -1z m191 -116 c41 -41 44 -48 43 -93 -4 -90 -66 -158 -136 -148
-46 7 -110 36 -110 50 0 8 -4 14 -10 14 -5 0 -10 8 -10 18 0 10 -3 22 -7 26
-12 12 -2 78 15 105 30 48 64 65 134 69 31 2 43 -4 81 -41z"/>
</g>
</svg>
